<svg width="498" height="105" viewBox="0 0 498 105" fill="none" xmlns="http://www.w3.org/2000/svg">
<path d="M73.704 85V24.604H122.424C124.552 24.604 126.512 25.136 128.304 26.2C130.096 27.264 131.524 28.692 132.588 30.484C133.652 32.22 134.184 34.152 134.184 36.28V52.576C134.184 54.704 133.652 56.664 132.588 58.456C131.524 60.248 130.096 61.676 128.304 62.74C126.512 63.748 124.552 64.252 122.424 64.252L84.792 64.336V85H73.704ZM85.8 53.08H121.92C122.2 53.08 122.452 52.996 122.676 52.828C122.9 52.66 123.012 52.436 123.012 52.156V36.7C123.012 36.42 122.9 36.196 122.676 36.028C122.452 35.804 122.2 35.692 121.92 35.692H85.8C85.52 35.692 85.268 35.804 85.044 36.028C84.876 36.196 84.792 36.42 84.792 36.7V52.156C84.792 52.436 84.876 52.66 85.044 52.828C85.268 52.996 85.52 53.08 85.8 53.08ZM151.657 85C149.529 85 147.569 84.468 145.777 83.404C144.041 82.34 142.641 80.94 141.577 79.204C140.513 77.412 139.981 75.452 139.981 73.324V36.196C139.981 34.068 140.513 32.136 141.577 30.4C142.641 28.608 144.041 27.18 145.777 26.116C147.569 25.052 149.529 24.52 151.657 24.52H188.785C190.913 24.52 192.845 25.052 194.581 26.116C196.373 27.18 197.801 28.608 198.865 30.4C199.929 32.136 200.461 34.068 200.461 36.196V73.324C200.461 75.452 199.929 77.412 198.865 79.204C197.801 80.94 196.373 82.34 194.581 83.404C192.845 84.468 190.913 85 188.785 85H151.657ZM152.077 73.828H188.197C188.477 73.828 188.729 73.744 188.953 73.576C189.177 73.352 189.289 73.1 189.289 72.82V36.7C189.289 36.42 189.177 36.196 188.953 36.028C188.729 35.804 188.477 35.692 188.197 35.692H152.077C151.797 35.692 151.545 35.804 151.321 36.028C151.153 36.196 151.069 36.42 151.069 36.7V72.82C151.069 73.1 151.153 73.352 151.321 73.576C151.545 73.744 151.797 73.828 152.077 73.828ZM209.796 85V24.436H220.884V73.828H270.276V85H209.796ZM275.341 85V36.196C275.341 34.068 275.873 32.136 276.937 30.4C278.001 28.608 279.401 27.18 281.137 26.116C282.929 25.052 284.889 24.52 287.017 24.52H324.061C326.189 24.52 328.149 25.052 329.941 26.116C331.733 27.18 333.161 28.608 334.225 30.4C335.289 32.136 335.821 34.068 335.821 36.196V85H324.649V64.672H286.429V85H275.341ZM286.429 53.584H324.649V36.7C324.649 36.42 324.537 36.196 324.313 36.028C324.089 35.804 323.837 35.692 323.557 35.692H287.437C287.157 35.692 286.905 35.804 286.681 36.028C286.513 36.196 286.429 36.42 286.429 36.7V53.584ZM393.608 85L375.38 63.244H389.912L405.704 81.892V85H393.608ZM345.392 85V24.604H394.112C396.24 24.604 398.2 25.136 399.992 26.2C401.784 27.264 403.212 28.692 404.276 30.484C405.34 32.22 405.872 34.152 405.872 36.28V52.576C405.872 54.704 405.34 56.664 404.276 58.456C403.212 60.248 401.784 61.676 399.992 62.74C398.2 63.748 396.24 64.252 394.112 64.252L356.48 64.336V85H345.392ZM357.488 53.08H393.608C393.888 53.08 394.14 52.996 394.364 52.828C394.588 52.66 394.7 52.436 394.7 52.156V36.7C394.7 36.42 394.588 36.196 394.364 36.028C394.14 35.804 393.888 35.692 393.608 35.692H357.488C357.208 35.692 356.956 35.804 356.732 36.028C356.564 36.196 356.48 36.42 356.48 36.7V52.156C356.48 52.436 356.564 52.66 356.732 52.828C356.956 52.996 357.208 53.08 357.488 53.08ZM413.532 85V24.52H424.536V85H413.532ZM444.097 85C441.969 85 440.009 84.468 438.217 83.404C436.481 82.34 435.081 80.94 434.017 79.204C432.953 77.412 432.421 75.452 432.421 73.324V68.704H443.509V72.82C443.509 73.1 443.593 73.352 443.761 73.576C443.985 73.744 444.237 73.828 444.517 73.828H480.721C481.001 73.828 481.225 73.744 481.393 73.576C481.617 73.352 481.729 73.1 481.729 72.82V61.312C481.729 61.032 481.617 60.808 481.393 60.64C481.225 60.472 481.001 60.388 480.721 60.388H444.097C441.969 60.388 440.009 59.856 438.217 58.792C436.481 57.728 435.081 56.328 434.017 54.592C432.953 52.8 432.421 50.812 432.421 48.628V36.196C432.421 34.068 432.953 32.136 434.017 30.4C435.081 28.608 436.481 27.18 438.217 26.116C440.009 25.052 441.969 24.52 444.097 24.52H481.225C483.353 24.52 485.285 25.052 487.021 26.116C488.813 27.18 490.241 28.608 491.305 30.4C492.369 32.136 492.901 34.068 492.901 36.196V40.816H481.729V36.7C481.729 36.42 481.617 36.196 481.393 36.028C481.225 35.804 481.001 35.692 480.721 35.692H444.517C444.237 35.692 443.985 35.804 443.761 36.028C443.593 36.196 443.509 36.42 443.509 36.7V48.208C443.509 48.488 443.593 48.712 443.761 48.88C443.985 49.048 444.237 49.132 444.517 49.132H481.225C483.353 49.132 485.285 49.664 487.021 50.728C488.813 51.792 490.241 53.22 491.305 55.012C492.369 56.748 492.901 58.708 492.901 60.892V73.324C492.901 75.452 492.369 77.412 491.305 79.204C490.241 80.94 488.813 82.34 487.021 83.404C485.285 84.468 483.353 85 481.225 85H444.097Z" fill="#FFFCF2"/>
<path d="M0 24H62V86H0V24Z" fill="#FFFCF2"/>
<path d="M31.788 24C31.9617 24.41 31.8951 26.6714 32.0399 27.3963C32.6542 30.4705 33.0201 33.6073 33.7325 36.6641C33.9631 37.6535 34.134 38.7446 34.4279 39.706C35.2021 42.239 36.1484 44.7422 37.8232 46.8265C38.1464 47.2384 38.4501 47.7646 38.8179 48.1285C41.4155 50.6989 44.2638 51.9665 47.7394 52.8796C50.5222 53.6106 53.2353 54.2922 56.076 54.7552C57.2061 54.9395 61.3046 55.1431 62 55.6687L61.9767 55.7618C61.6273 55.8994 61.2092 55.8399 60.8331 55.9122C58.8735 56.2889 56.779 56.4022 54.8069 56.6796C53.1997 56.8881 51.4401 57.5213 49.8644 57.7893C46.9648 58.2825 44.5348 58.9694 42.0347 60.5855C41.5159 60.9209 40.5175 61.3227 40.0651 61.7125C38.2847 63.2461 36.7219 65.2656 35.6785 67.3743C33.561 72.1069 32.6342 77.2938 31.9542 82.398C31.8633 83.0804 31.5502 86.7235 31.3338 87C31.1904 86.8314 31.2326 86.8821 31.2186 86.6214C30.896 83.1295 30.4016 79.3683 29.7312 75.9346C29.3639 74.0535 28.6711 71.7919 28.2939 69.8888C27.6547 68.2538 26.6724 66.0009 25.6904 64.5815C22.6172 60.14 16.848 58.2829 11.8755 57.1775C7.87662 56.2886 3.87841 55.9813 0 55.1974C1.17467 54.9534 2.66626 54.9649 3.89779 54.8002C9.12853 54.1011 14.3243 53.2299 19.2872 51.379C20.5281 50.9163 21.9059 49.9272 22.9169 49.1082C27.0493 46.1552 28.5183 41.2285 29.6172 36.4975C30.0219 34.7549 30.5264 32.7566 30.7675 30.9094L31.4142 26.2387C31.4893 25.7015 31.5953 24.4624 31.788 24Z" fill="#252422"/>
</svg>
